<svg xmlns="http://www.w3.org/2000/svg" style="display: none;"><symbol id="suitcase" viewBox="0 0 128 128"><title>suitcase</title><path d="M122.25,33.753H102.33l-2.163-10.587A19.819,19.819,0,0,0,80.816,7.37H47.184a19.819,19.819,0,0,0-19.351,15.8L25.67,33.753H5.75A5.757,5.757,0,0,0,0,39.5V114.88a5.756,5.756,0,0,0,5.75,5.75h116.5a5.756,5.756,0,0,0,5.75-5.75V39.5A5.757,5.757,0,0,0,122.25,33.753ZM31.263,23.867a16.306,16.306,0,0,1,15.921-13H80.816a16.306,16.306,0,0,1,15.921,13l2.021,9.887H94.165l-1.836-8.986a11.791,11.791,0,0,0-11.513-9.4H47.184a11.791,11.791,0,0,0-11.513,9.4l-1.836,8.986H29.242Zm59.329,9.886H37.408L39.1,25.468a8.278,8.278,0,0,1,8.083-6.6H80.816a8.278,8.278,0,0,1,8.083,6.6ZM3.5,39.5a2.253,2.253,0,0,1,2.25-2.25h116.5a2.253,2.253,0,0,1,2.25,2.25V58.8a16.269,16.269,0,0,1-16.25,16.25H19.75A16.269,16.269,0,0,1,3.5,58.8ZM88.812,78.55h9.25v10.2A1.251,1.251,0,0,1,96.812,90h-6.75a1.252,1.252,0,0,1-1.25-1.25Zm-58.875,0h9.25v10.2A1.251,1.251,0,0,1,37.937,90h-6.75a1.252,1.252,0,0,1-1.25-1.25ZM124.5,114.88a2.253,2.253,0,0,1-2.25,2.25H5.75a2.253,2.253,0,0,1-2.25-2.25V70A19.735,19.735,0,0,0,19.75,78.55h6.687v10.2a4.756,4.756,0,0,0,4.75,4.75h6.75a4.755,4.755,0,0,0,4.75-4.75V78.55H85.312v10.2a4.756,4.756,0,0,0,4.75,4.75h6.75a4.755,4.755,0,0,0,4.75-4.75V78.55h6.688A19.735,19.735,0,0,0,124.5,70Z"/></symbol><symbol id="address-book" viewBox="0 0 512 512"><title>address-book</title><path d="m474.5 130.667c4.143 0 7.5-3.357 7.5-7.5v-85.667c0-4.143-3.357-7.5-7.5-7.5h-52.5v-22.5c0-4.143-3.357-7.5-7.5-7.5h-332c-28.948 0-52.5 23.552-52.5 52.5v407c0 28.948 23.552 52.5 52.5 52.5h332c4.143 0 7.5-3.357 7.5-7.5v-30c0-1.989-.79-3.896-2.196-5.304-6.604-6.603-10.24-15.374-10.24-24.696s3.637-18.094 10.24-24.696c1.406-1.407 2.196-3.314 2.196-5.304v-52.5h52.5c4.143 0 7.5-3.357 7.5-7.5v-85.667c0-4.143-3.357-7.5-7.5-7.5h-52.5v-15h52.5c4.143 0 7.5-3.357 7.5-7.5v-85.666c0-4.143-3.357-7.5-7.5-7.5h-52.5v-15zm-7.5-85.667v70.667h-45v-70.667zm-422 7.5c0-18.109 12.904-33.262 30-36.747v361.781c-11.673 1.677-22.118 7.208-30 15.259zm37.5 444.5c-20.678 0-37.5-16.822-37.5-37.5v-30c0-20.678 16.822-37.5 37.5-37.5 4.143 0 7.5-3.357 7.5-7.5v-369.5h317v362h-294.5c-4.143 0-7.5 3.357-7.5 7.5s3.357 7.5 7.5 7.5h294.5v15h-324.5c-12.406 0-22.5 10.094-22.5 22.5v30c0 12.406 10.094 22.5 22.5 22.5h324.5v15zm8.79-30h-8.79c-4.136 0-7.5-3.364-7.5-7.5v-30c0-4.136 3.364-7.5 7.5-7.5h8.79c-.833 2.347-1.29 4.871-1.29 7.5v30c0 2.629.458 5.153 1.29 7.5zm13.71-7.5v-30c0-4.136 3.364-7.5 7.5-7.5h287.412c-3.491 6.894-5.348 14.554-5.348 22.5s1.857 15.606 5.348 22.5h-287.412c-4.136 0-7.5-3.364-7.5-7.5zm362-183.167v70.667h-45v-70.667zm0-115.666v70.666h-45v-70.666z"/></symbol><symbol id="email" viewBox="0 0 512 512"><title>email</title><g> <g> <path d="M504.5,68.5H7.5C3.357,68.5,0,71.857,0,76v360c0,4.143,3.357,7.5,7.5,7.5h497c4.143,0,7.5-3.357,7.5-7.5V76 C512,71.857,508.643,68.5,504.5,68.5z M497,428.5H15v-345h482V428.5z"/> </g> </g><g> <g> <path d="M479.691,400.587L329.014,256.054l150.68-144.644c2.987-2.868,3.085-7.616,0.216-10.604 c-2.869-2.99-7.616-3.087-10.604-0.217L313.755,249.91c-0.367,0.264-0.718,0.56-1.042,0.898c-0.184,0.191-0.354,0.39-0.513,0.595 l-18.251,17.52c-20.924,20.207-54.97,20.209-75.913-0.016l-18.234-17.504c-0.159-0.205-0.33-0.404-0.514-0.596 c-0.324-0.339-0.676-0.635-1.043-0.899L42.694,100.59c-2.99-2.87-7.735-2.771-10.604,0.217c-2.869,2.987-2.771,7.735,0.216,10.604 l150.679,144.643L32.309,400.588c-2.989,2.867-3.089,7.614-0.221,10.604c1.473,1.536,3.441,2.309,5.413,2.309 c1.867,0,3.737-0.693,5.19-2.088L193.815,266.45l13.817,13.263c13.338,12.882,30.855,19.32,48.374,19.32 c17.511,0,35.022-6.437,48.346-19.305l13.833-13.279l151.124,144.963c1.453,1.395,3.323,2.088,5.19,2.088 c1.972,0,3.94-0.772,5.413-2.309C482.78,408.202,482.681,403.455,479.691,400.587z"/> </g> </g></symbol><symbol id="graduation-head-cover" viewBox="0 0 56.508 56.508"><title>graduation-head-cover</title><path d="M45.629,39.068V26.521l10.603-5.254c0.183-0.092,0.291-0.283,0.274-0.487c-0.016-0.204-0.151-0.377-0.348-0.438 l-27.756-8.754c-0.098-0.03-0.201-0.03-0.301,0L0.35,20.341c-0.195,0.062-0.333,0.235-0.348,0.438s0.094,0.396,0.276,0.487 l5.787,2.867v11.5c-1.211,0.555-1.77,3.387-1.77,6.041c0,0.274,0.224,0.5,0.5,0.5s0.5-0.226,0.5-0.5 c0-2.293,0.403-3.842,0.77-4.601v4.685c0,0.275,0.224,0.5,0.5,0.5s0.5-0.225,0.5-0.5v-4.412c0.328,0.834,0.647,2.291,0.647,4.328 c0,0.277,0.224,0.5,0.5,0.5s0.5-0.223,0.5-0.5c0-2.564-0.52-5.297-1.647-5.979V24.629l3.814,1.891v12.549 c0,3.814,8.952,5.875,17.375,5.875C36.677,44.943,45.629,42.885,45.629,39.068z M28.254,12.587l26.417,8.333l-9.69,4.803 c-0.045,0.015-0.084,0.035-0.123,0.062l-16.603,8.229L11.65,25.785c-0.038-0.025-0.078-0.047-0.122-0.062l-3.435-1.701 l18.886-3.838c0.271-0.056,0.445-0.319,0.391-0.59c-0.056-0.271-0.32-0.445-0.59-0.39L6.634,23.299l-4.799-2.378L28.254,12.587z M28.254,43.943c-9.65,0-16.375-2.568-16.375-4.875V27.015l16.153,8.006c0.07,0.034,0.146,0.053,0.223,0.053 c0.078,0,0.152-0.019,0.223-0.053l16.15-8.006v12.055C44.629,41.375,37.902,43.943,28.254,43.943z"/></symbol><symbol id="man" viewBox="0 0 512.052 512.052"><title>man</title><path d="M135.769,207.788c0,35.83,12.712,72.124,34.877,99.574c23.268,28.815,53.618,44.685,85.459,44.685 c31.835,0,62.147-15.86,85.353-44.659c22.091-27.416,34.761-63.695,34.761-99.535v-32.07 c23.499-74.602,14.779-137.595,7.134-154.97c-0.012-0.027-0.027-0.052-0.04-0.079c-0.072-0.159-0.152-0.313-0.234-0.467 c-0.045-0.084-0.088-0.171-0.136-0.253c-0.08-0.137-0.167-0.268-0.254-0.399c-0.062-0.093-0.121-0.188-0.186-0.277 c-0.078-0.107-0.162-0.209-0.246-0.312c-0.083-0.104-0.165-0.209-0.252-0.307c-0.075-0.084-0.155-0.162-0.233-0.243 c-0.103-0.106-0.204-0.214-0.313-0.313c-0.079-0.073-0.163-0.14-0.245-0.21c-0.113-0.096-0.224-0.193-0.342-0.282 c-0.097-0.074-0.199-0.14-0.299-0.209c-0.108-0.074-0.214-0.152-0.325-0.22c-0.127-0.079-0.259-0.149-0.39-0.22 c-0.09-0.049-0.177-0.102-0.269-0.147c-0.156-0.078-0.318-0.146-0.48-0.214c-0.072-0.03-0.142-0.064-0.214-0.092 c-0.173-0.067-0.35-0.122-0.528-0.177c-0.067-0.021-0.134-0.045-0.201-0.064c-0.169-0.047-0.342-0.083-0.515-0.119 c-0.083-0.017-0.165-0.038-0.249-0.053c-0.148-0.026-0.299-0.042-0.449-0.059c-0.115-0.013-0.23-0.03-0.346-0.038 c-0.119-0.008-0.24-0.009-0.36-0.012c-0.151-0.004-0.302-0.009-0.453-0.004c-0.095,0.003-0.19,0.012-0.285,0.018 c-0.177,0.011-0.353,0.025-0.53,0.049c-0.027,0.003-0.054,0.003-0.081,0.007c-20.062,2.865-44.351-2.012-70.066-7.175 c-43.121-8.658-87.673-17.581-122.508,7.26c-0.524-0.108-1.066-0.165-1.622-0.165c-35.729,0-60.682,29.608-60.682,72.002 c0,32.772,13.789,93.919,15.748,102.441V207.788z M328.999,297.349c-20.108,24.955-45.996,38.698-72.894,38.698 c-26.911,0-52.84-13.757-73.01-38.736c-19.908-24.655-31.326-57.284-31.326-89.522v-9.111c0-28.498,16.161-66.981,21.655-79.238 c55.276-6.495,99.31-0.006,126.772,6.703c24.089,5.885,39.896,12.933,45.595,15.701l14.428,34.33v31.68 C360.219,240.106,348.84,272.726,328.999,297.349z M180.703,32.034c0.772,0,1.517-0.115,2.224-0.32 c2.342,0.671,4.958,0.277,7.047-1.31c29.374-22.312,71.23-13.905,111.709-5.778c21.237,4.265,41.546,8.343,60.305,8.343 c2.89,0,5.74-0.109,8.555-0.317c4.922,17.755,9.586,62.524-3.828,117.681l-7.311-17.395c-0.697-1.658-1.932-3.033-3.507-3.903 c-2.952-1.63-73.616-39.764-188.896-24.933c-0.02,0.002-0.038,0.008-0.057,0.01c-0.151,0.021-0.301,0.052-0.45,0.081 c-0.115,0.022-0.231,0.04-0.344,0.067c-0.096,0.023-0.19,0.055-0.286,0.082c-1.021,0.285-1.949,0.761-2.752,1.388 c-0.502,0.39-0.963,0.84-1.367,1.353c-0.018,0.023-0.039,0.044-0.057,0.068c-0.081,0.105-0.154,0.219-0.23,0.329 c-0.075,0.109-0.155,0.215-0.225,0.327c-0.049,0.079-0.092,0.164-0.139,0.246c-0.088,0.152-0.175,0.304-0.253,0.462 c-0.007,0.014-0.016,0.027-0.023,0.042c-0.619,1.282-9.674,20.183-16.721,43.296c-3.985-21.14-8.077-46.957-8.077-63.816 C136.021,49.351,158.463,32.034,180.703,32.034z"/><path d="M480.736,414.085c-10.786-15.798-25.828-26.766-43.5-31.717c-0.14-0.039-0.28-0.074-0.422-0.105l-80.257-17.846 c-7.376-1.64-12.528-8.063-12.528-15.62v-4.75c0-4.418-3.582-8-8-8s-8,3.582-8,8v4.75c0,15.112,10.303,27.958,25.055,31.238 l0.808,0.18c-22.386,27.264-58.898,43.835-97.866,43.835c-38.964,0-75.479-16.572-97.865-43.835l0.807-0.179 c14.752-3.28,25.055-16.125,25.055-31.238v-4.75c0-4.418-3.582-8-8-8s-8,3.582-8,8v4.75c0,7.556-5.152,13.979-12.528,15.62 l-80.257,17.846c-0.142,0.031-0.282,0.066-0.422,0.105c-17.672,4.951-32.714,15.918-43.5,31.717 c-9.866,14.451-15.299,31.891-15.299,49.109v19.843c0,15.999,14.355,29.016,32.001,29.016h416.016 c17.646,0,32.001-13.017,32.001-29.016v-19.843C496.035,445.976,490.602,428.536,480.736,414.085z M480.035,483.037 c0,7.177-7.178,13.016-16.001,13.016H48.018c-8.823,0-16.001-5.839-16.001-13.016v-19.843c0-25.893,16.114-56.618,46.913-65.362 l62.013-13.789c24.802,34.649,68.465,56.006,115.083,56.006c46.622,0,90.28-21.357,115.083-56.007l62.013,13.789 c30.799,8.744,46.913,39.469,46.913,65.362V483.037z"/></symbol><symbol id="linkedin" viewBox="0 0 24 24"><title>linkedin</title><path d="m23.994 24v-.001h.006v-8.802c0-4.306-.927-7.623-5.961-7.623-2.42 0-4.044 1.328-4.707 2.587h-.07v-2.185h-4.773v16.023h4.97v-7.934c0-2.089.396-4.109 2.983-4.109 2.549 0 2.587 2.384 2.587 4.243v7.801z"/><path d="m.396 7.977h4.976v16.023h-4.976z"/><path d="m2.882 0c-1.591 0-2.882 1.291-2.882 2.882s1.291 2.909 2.882 2.909 2.882-1.318 2.882-2.909c-.001-1.591-1.292-2.882-2.882-2.882z"/></symbol><symbol  xmlns="http://www.w3.org/2000/svg" viewBox="0 0 30 30" id="instagram"><path d="M 9.9980469 3 C 6.1390469 3 3 6.1419531 3 10.001953 L 3 20.001953 C 3 23.860953 6.1419531 27 10.001953 27 L 20.001953 27 C 23.860953 27 27 23.858047 27 19.998047 L 27 9.9980469 C 27 6.1390469 23.858047 3 19.998047 3 L 9.9980469 3 z M 22 7 C 22.552 7 23 7.448 23 8 C 23 8.552 22.552 9 22 9 C 21.448 9 21 8.552 21 8 C 21 7.448 21.448 7 22 7 z M 15 9 C 18.309 9 21 11.691 21 15 C 21 18.309 18.309 21 15 21 C 11.691 21 9 18.309 9 15 C 9 11.691 11.691 9 15 9 z M 15 11 A 4 4 0 0 0 11 15 A 4 4 0 0 0 15 19 A 4 4 0 0 0 19 15 A 4 4 0 0 0 15 11 z"></path></symbol><symbol id="twitter" viewBox="0 0 512 512"><title>twitter</title><path d="M512,97.248c-19.04,8.352-39.328,13.888-60.48,16.576c21.76-12.992,38.368-33.408,46.176-58.016 c-20.288,12.096-42.688,20.64-66.56,25.408C411.872,60.704,384.416,48,354.464,48c-58.112,0-104.896,47.168-104.896,104.992 c0,8.32,0.704,16.32,2.432,23.936c-87.264-4.256-164.48-46.08-216.352-109.792c-9.056,15.712-14.368,33.696-14.368,53.056 c0,36.352,18.72,68.576,46.624,87.232c-16.864-0.32-33.408-5.216-47.424-12.928c0,0.32,0,0.736,0,1.152 c0,51.008,36.384,93.376,84.096,103.136c-8.544,2.336-17.856,3.456-27.52,3.456c-6.72,0-13.504-0.384-19.872-1.792 c13.6,41.568,52.192,72.128,98.08,73.12c-35.712,27.936-81.056,44.768-130.144,44.768c-8.608,0-16.864-0.384-25.12-1.44 C46.496,446.88,101.6,464,161.024,464c193.152,0,298.752-160,298.752-298.688c0-4.64-0.16-9.12-0.384-13.568 C480.224,136.96,497.728,118.496,512,97.248z"/></symbol><symbol id="behance" viewBox="0 0 511.958 511.958"><title>behance</title><path d="M210.624,240.619c10.624-5.344,18.656-11.296,24.16-17.728c9.792-11.584,14.624-26.944,14.624-45.984 c0-18.528-4.832-34.368-14.496-47.648c-16.128-21.632-43.424-32.704-82.016-33.28H0v312.096h142.56 c16.064,0,30.944-1.376,44.704-4.192c13.76-2.848,25.664-8.064,35.744-15.68c8.96-6.624,16.448-14.848,22.4-24.544 c9.408-14.656,14.112-31.264,14.112-49.76c0-17.92-4.128-33.184-12.32-45.728C238.912,255.627,226.752,246.443,210.624,240.619z M63.072,150.187h68.864c15.136,0,27.616,1.632,37.408,4.864c11.328,4.704,16.992,14.272,16.992,28.864 c0,13.088-4.32,22.24-12.864,27.392c-8.608,5.152-19.776,7.744-33.472,7.744H63.072V150.187z M171.968,348.427 c-7.616,3.68-18.336,5.504-32.064,5.504H63.072v-83.232h77.888c13.568,0.096,24.128,1.888,31.68,5.248 c13.44,6.08,20.128,17.216,20.128,33.504C192.768,328.651,185.856,341.579,171.968,348.427z"/><rect x="327.168" y="110.539" width="135.584" height="38.848"/><path d="M509.856,263.851c-2.816-18.08-9.024-33.984-18.688-47.712c-10.592-15.552-24.032-26.944-40.384-34.144 c-16.288-7.232-34.624-10.848-55.04-10.816c-34.272,0-62.112,10.72-83.648,32c-21.472,21.344-32.224,52.032-32.224,92.032 c0,42.656,11.872,73.472,35.744,92.384c23.776,18.944,51.232,28.384,82.4,28.384c37.728,0,67.072-11.232,88.032-33.632 c13.408-14.144,20.992-28.064,22.656-41.728H446.24c-3.616,6.752-7.808,12.032-12.608,15.872 c-8.704,7.04-20.032,10.56-33.92,10.56c-13.216,0-24.416-2.912-33.76-8.704c-15.424-9.28-23.488-25.536-24.512-48.672h170.464 C512.16,289.739,511.52,274.411,509.856,263.851z M342.976,269.835c2.24-15.008,7.68-26.912,16.32-35.712 c8.64-8.768,20.864-13.184,36.512-13.216c14.432,0,26.496,4.128,36.32,12.416c9.696,8.352,15.168,20.48,16.288,36.512H342.976z"/></symbol><symbol id="shop" viewBox="0 0 512 512"><title>shop</title><g> <g> <path d="M488.468,448.903h-8.532V226.4C499.202,214.003,512,192.386,512,167.822c0-1.305-0.341-2.588-0.988-3.721L451.499,59.953 c-4.18-7.313-12.009-11.857-20.432-11.857H80.933c-8.423,0-16.252,4.543-20.432,11.857L0.988,164.101 C0.341,165.234,0,166.518,0,167.822c0,24.564,12.798,46.181,32.064,58.578v222.503h-8.532c-4.142,0-7.5,3.358-7.5,7.5 c0,4.142,3.358,7.5,7.5,7.5h464.936c4.143,0,7.5-3.358,7.5-7.5C495.968,452.261,492.61,448.903,488.468,448.903z M15.517,175.322 h24.044c4.142,0,7.5-3.358,7.5-7.5c0-4.142-3.358-7.5-7.5-7.5H20.424l53.101-92.927c1.516-2.652,4.354-4.299,7.408-4.299h350.134 c3.054,0,5.893,1.647,7.408,4.299l53.1,92.927h-19.141c-4.143,0-7.5,3.358-7.5,7.5c0,4.142,3.357,7.5,7.5,7.5h24.048 c-3.667,26.584-26.532,47.125-54.108,47.125c-27.575,0-50.429-20.543-54.097-47.125h52.096c4.143,0,7.5-3.358,7.5-7.5 c0-4.142-3.357-7.5-7.5-7.5H71.631c-4.142,0-7.5,3.358-7.5,7.5c0,4.142,3.358,7.5,7.5,7.5h52.091 c-3.668,26.582-26.523,47.125-54.097,47.125C42.049,222.447,19.184,201.906,15.517,175.322z M372.222,175.322 c-3.668,26.582-26.523,47.125-54.097,47.125c-27.575,0-50.429-20.543-54.097-47.125H372.222z M247.972,175.322 c-3.668,26.582-26.523,47.125-54.097,47.125c-27.574,0-50.429-20.543-54.097-47.125H247.972z M424.854,448.904h-81.193v-25.081 h81.193V448.904z M424.854,408.823h-81.193V271.516h81.193V408.823z M464.936,448.904h-25.081V264.016c0-4.142-3.357-7.5-7.5-7.5 h-96.193c-4.143,0-7.5,3.358-7.5,7.5v184.887H47.064V233.674c7.081,2.433,14.665,3.773,22.561,3.773 c27.095,0,50.624-15.556,62.125-38.207c11.501,22.65,35.03,38.207,62.125,38.207c27.095,0,50.624-15.556,62.125-38.207 c11.501,22.65,35.03,38.207,62.125,38.207c27.095,0,50.624-15.556,62.125-38.207c11.501,22.65,35.03,38.207,62.125,38.207 c7.896,0,15.48-1.34,22.561-3.772V448.904z"/> </g> </g><g> <g> <path d="M296.081,256.516H79.645c-4.142,0-7.5,3.358-7.5,7.5v152.307c0,4.142,3.358,7.5,7.5,7.5h216.436 c4.143,0,7.5-3.358,7.5-7.5V264.016C303.581,259.873,300.224,256.516,296.081,256.516z M288.581,408.823H87.145V271.516h201.436 V408.823z"/> </g> </g></symbol><symbol id="web-browser" viewBox="0 0 74 74"><title>web-browser</title><path d="m71 45.47a1 1 0 0 1 -1-1v-2.91a1 1 0 0 1 2 0v2.91a1 1 0 0 1 -1 1z"/><path d="m68 72h-62a4 4 0 0 1 -4-4v-62a4 4 0 0 1 4-4h62a4 4 0 0 1 4 4v28.56a1 1 0 0 1 -2 0v-28.56a2 2 0 0 0 -2-2h-62a2 2 0 0 0 -2 2v62a2 2 0 0 0 2 2h62a2 2 0 0 0 2-2v-6.56a1 1 0 0 1 2 0v6.56a4 4 0 0 1 -4 4z"/><path d="m71 55.44a1 1 0 0 1 -1-1v-2.97a1 1 0 0 1 2 0v2.97a1 1 0 0 1 -1 1z"/><path d="m71 20h-68a1 1 0 0 1 0-2h68a1 1 0 0 1 0 2z"/><path d="m64.771 11.969h-2.709a1 1 0 0 1 0-2h2.709a1 1 0 0 1 0 2z"/><path d="m55.771 11.969h-2.709a1 1 0 0 1 0-2h2.709a1 1 0 0 1 0 2z"/><path d="m46.771 11.969h-2.709a1 1 0 0 1 0-2h2.709a1 1 0 0 1 0 2z"/><path d="m36.9 11.906h-27.421a1 1 0 0 1 0-2h27.421a1 1 0 0 1 0 2z"/><path d="m30 45.733h-18a1 1 0 0 1 -1-1v-17.733a1 1 0 0 1 1-1h18a1 1 0 0 1 1 1v17.733a1 1 0 0 1 -1 1zm-17-2h16v-15.733h-16z"/><path d="m62 28.167h-25a1 1 0 0 1 0-2h25a1 1 0 0 1 0 2z"/><path d="m62 37.039h-25a1 1 0 0 1 0-2h25a1 1 0 0 1 0 2z"/><path d="m62 45.911h-25a1 1 0 0 1 0-2h25a1 1 0 0 1 0 2z"/><path d="m62 54.783h-49.5a1 1 0 0 1 0-2h49.5a1 1 0 0 1 0 2z"/><path d="m62 63.656h-49.5a1 1 0 0 1 0-2h49.5a1 1 0 0 1 0 2z"/></symbol><symbol id="computer" viewBox="0 0 512 512"><title>computer</title><path d="M472,56H40A32.042,32.042,0,0,0,8,88V360a32.042,32.042,0,0,0,32,32H204.9l-10.67,32H168a8,8,0,0,0-8,8v16H88a8,8,0,0,0,0,16H440a8,8,0,0,0,0-16H352V432a8,8,0,0,0-8-8H317.77L307.1,392H472a32.042,32.042,0,0,0,32-32V88A32.042,32.042,0,0,0,472,56ZM336,440v8H176v-8ZM211.1,424l10.67-32h68.46l10.67,32ZM488,360a16.021,16.021,0,0,1-16,16H40a16.021,16.021,0,0,1-16-16V344H488ZM143.66,256l-3,72h-9.32l-3-72Zm-14.22-16,5.34-32h2.44l5.34,32ZM136,192c-8.67,0-16-10.99-16-24,0-8.21,8.38-20.14,15.98-28.55C142.83,147.05,152,159.2,152,168,152,181.01,144.67,192,136,192Zm87.06-16,.94,1.89V184H192v-6.11l.94-1.89Zm-22.12-16L208,145.89,215.06,160ZM224,200V327a8.258,8.258,0,0,0,.07,1H191.93a8.258,8.258,0,0,0,.07-1V200Zm72-32h24v16h-8a8,8,0,0,0,0,16h8v16H296a8,8,0,0,0,0,16h24v16h-8a8,8,0,0,0,0,16h8v16H296a8,8,0,0,0,0,16h24v32H264V136h56v16H296a8,8,0,0,0,0,16Zm96,96v63a8.258,8.258,0,0,0,.07,1H359.93a8.258,8.258,0,0,0,.07-1V264Zm-32-16v-6.11l16-32,16,32V248Zm128,80H407.93a8.258,8.258,0,0,0,.07-1V240a8.081,8.081,0,0,0-.84-3.58l-24-48a8.009,8.009,0,0,0-14.32,0l-24,48A8.081,8.081,0,0,0,344,240v87a8.258,8.258,0,0,0,.07,1H336V128a8,8,0,0,0-8-8H256a8,8,0,0,0-8,8V328h-8.07a8.258,8.258,0,0,0,.07-1V176a8.081,8.081,0,0,0-.84-3.58l-24-48a8.009,8.009,0,0,0-14.32,0l-24,48A8.081,8.081,0,0,0,176,176V327a8.258,8.258,0,0,0,.07,1h-19.4l3.32-79.67c.01-.18,0-.36,0-.55v-.24a8.013,8.013,0,0,0-.1-.84v-.02l-7.4-44.41C161.78,195.26,168,182.52,168,168c0-20.56-23.83-43.33-26.55-45.86a8.017,8.017,0,0,0-10.9,0C127.83,124.67,104,147.44,104,168c0,14.52,6.22,27.26,15.51,34.27l-7.4,44.41v.02a8.013,8.013,0,0,0-.1.84v.24c0,.19-.01.37,0,.55L115.33,328H24V88A16.021,16.021,0,0,1,40,72H472a16.021,16.021,0,0,1,16,16Z"/><path d="M96,352H48a8,8,0,0,0,0,16H96a8,8,0,0,0,0-16Z"/><path d="M128,352h-8a8,8,0,0,0,0,16h8a8,8,0,0,0,0-16Z"/><path d="M208,208a8,8,0,0,0-8,8v88a8,8,0,0,0,16,0V216A8,8,0,0,0,208,208Z"/><path d="M376,272a8,8,0,0,0-8,8v24a8,8,0,0,0,16,0V280A8,8,0,0,0,376,272Z"/><path d="M48,104h64a8,8,0,0,0,0-16H48a8,8,0,0,0,0,16Z"/><path d="M48,128H64a8,8,0,0,0,0-16H48a8,8,0,0,0,0,16Z"/><path d="M432,312h32a8,8,0,0,0,0-16H432a8,8,0,0,0,0,16Z"/><path d="M456,288h8a8,8,0,0,0,0-16h-8a8,8,0,0,0,0,16Z"/></symbol><symbol id="analysis" viewBox="0 0 512 512"><title>analysis</title><path d="M326.623,133.062c13.785,0,25-11.215,25-25s-11.215-25.001-25-25.001s-25,11.216-25,25.001 c0,5.63,1.872,10.83,5.025,15.014l-41.076,57.401c-2.451-0.805-5.066-1.247-7.784-1.247c-6.569,0-12.551,2.551-17.017,6.709 l-27.379-15.536c0.365-1.696,0.561-3.454,0.561-5.257c0-13.785-11.215-25-25-25s-25,11.215-25,25c0,1.803,0.196,3.561,0.561,5.257 l-27.379,15.536c-4.466-4.158-10.448-6.708-17.017-6.708c-13.785,0-25,11.216-25,25.001s11.215,25.001,25,25.001 s25-11.216,25-25.001c0-1.803-0.196-3.561-0.561-5.257l27.379-15.536c4.466,4.158,10.448,6.709,17.017,6.709 c6.569,0,12.55-2.551,17.017-6.708l27.379,15.536c-0.365,1.696-0.561,3.454-0.561,5.257c0,13.785,11.215,25.001,25,25.001 c13.786,0,25.001-11.216,25.001-25.001c0-5.631-1.873-10.832-5.026-15.016l41.076-57.401 C321.289,132.62,323.905,133.062,326.623,133.062z M326.623,98.061c5.514,0,10,4.486,10,10.001c0,5.514-4.486,10-10,10 s-10-4.486-10-10C316.622,102.547,321.108,98.061,326.623,98.061z M120.115,214.231c-5.514,0-10-4.486-10-10.001 s4.486-10.001,10-10.001s10,4.486,10,10.001S125.629,214.231,120.115,214.231z M188.951,175.146c-5.514,0-10-4.486-10-10.001 c0-5.514,4.486-10,10-10s10,4.486,10,10C198.952,170.66,194.465,175.146,188.951,175.146z M257.787,214.231 c-5.514,0-10-4.486-10-10.001s4.486-10.001,10-10.001c5.515,0,10.001,4.486,10.001,10.001S263.301,214.231,257.787,214.231z"/><path d="M418.796,376.965H366.31H80.428H21.215c-3.427,0-6.215-2.788-6.215-6.215V61.331c0-3.427,2.788-6.215,6.215-6.215h35.356 c4.142,0,7.5-3.357,7.5-7.5s-3.358-7.5-7.5-7.5H21.215C9.517,40.116,0,49.633,0,61.331V370.75c0,11.698,9.517,21.215,21.215,21.215 h51.713v16.506c0,9.403,7.65,17.053,17.053,17.053h75.074l-35.34,68.998c-1.888,3.687-0.431,8.206,3.256,10.095 c1.094,0.561,2.262,0.826,3.413,0.826c2.725,0,5.354-1.49,6.681-4.083l38.843-75.836h82.922l38.843,75.836 c1.328,2.593,3.956,4.083,6.681,4.083c1.151,0,2.319-0.267,3.413-0.826c3.687-1.889,5.145-6.408,3.256-10.095l-35.34-68.998h75.074 c9.403,0,17.053-7.649,17.053-17.053v-16.506h44.986c4.142,0,7.5-3.357,7.5-7.5S422.938,376.965,418.796,376.965z M358.81,408.471 c0,1.132-0.921,2.053-2.053,2.053H89.981c-1.132,0-2.053-0.921-2.053-2.053v-16.506H358.81V408.471z"/><path d="M86.571,55.116h102.672h68.251h168.028c3.427,0,6.215,2.788,6.215,6.215v71.311c0,4.143,3.358,7.5,7.5,7.5 s7.5-3.357,7.5-7.5V61.331c0-11.698-9.517-21.215-21.215-21.215H264.995V25.374c0-10.375-8.441-18.816-18.817-18.816H200.56 c-10.375,0-18.817,8.441-18.817,18.816v14.742H86.571c-4.142,0-7.5,3.357-7.5,7.5S82.429,55.116,86.571,55.116z M196.743,25.374 c0-2.104,1.712-3.816,3.817-3.816h45.618c2.104,0,3.817,1.712,3.817,3.816v14.742h-53.251V25.374z"/><path d="M104.902,267.576c-4.142,0-7.5,3.357-7.5,7.5v66.272c0,4.143,3.358,7.5,7.5,7.5h30.427c4.142,0,7.5-3.357,7.5-7.5v-66.272 c0-4.143-3.358-7.5-7.5-7.5H104.902z M127.829,333.849h-15.427v-51.272h15.427V333.849z"/><path d="M173.737,229.248c-4.142,0-7.5,3.357-7.5,7.5v104.601c0,4.143,3.358,7.5,7.5,7.5h30.427c4.142,0,7.5-3.357,7.5-7.5V236.748 c0-4.143-3.358-7.5-7.5-7.5H173.737z M196.665,333.849h-15.427v-89.601h15.427V333.849z"/><path d="M242.573,267.576c-4.142,0-7.5,3.357-7.5,7.5v66.272c0,4.143,3.358,7.5,7.5,7.5H273c4.142,0,7.5-3.357,7.5-7.5v-66.272 c0-4.143-3.358-7.5-7.5-7.5H242.573z M265.5,333.849h-15.427v-51.272H265.5V333.849z"/><path d="M311.409,311.832c-4.142,0-7.5,3.357-7.5,7.5v22.017c0,4.143,3.358,7.5,7.5,7.5h30.427c4.142,0,7.5-3.357,7.5-7.5 s-3.358-7.5-7.5-7.5h-22.927v-14.517C318.909,315.189,315.551,311.832,311.409,311.832z"/><path d="M508.175,384.019l-43.027-74.526c10.901-11.619,18.839-25.816,23.079-41.64c6.777-25.291,3.299-51.708-9.793-74.384 c-27.026-46.813-87.097-62.906-133.907-35.881c-46.811,27.025-62.906,87.096-35.88,133.907 c13.092,22.676,34.231,38.896,59.522,45.674c8.446,2.263,17.015,3.382,25.53,3.382c7.442,0,14.841-0.856,22.077-2.55l43.018,74.528 c5.273,9.137,14.875,14.25,24.737,14.249c4.833,0,9.729-1.229,14.208-3.813c8.796-5.077,14.261-14.544,14.261-24.706 C512,393.28,510.678,388.357,508.175,384.019z M372.051,322.68c-21.421-5.74-39.326-19.479-50.415-38.685 c-22.89-39.648-9.257-90.526,30.39-113.417c13.043-7.53,27.296-11.106,41.374-11.106c28.715,0,56.683,14.893,72.043,41.497 c11.088,19.206,14.034,41.58,8.294,63.002c-5.74,21.422-19.479,39.325-38.685,50.414 C415.847,325.474,393.473,328.418,372.051,322.68z M490.242,409.973c-6.453,3.726-14.733,1.508-18.456-4.942l-41.388-71.704 c4.148-1.693,8.21-3.673,12.156-5.951c3.949-2.28,7.689-4.818,11.23-7.566l41.4,71.707c1.188,2.061,1.816,4.393,1.816,6.743 C497,403.078,494.41,407.567,490.242,409.973z"/><path d="M461.542,263.611c5.295-17.056,4.034-35.316-3.551-51.416c-1.766-3.748-6.234-5.354-9.981-3.589 c-3.748,1.766-5.354,6.234-3.588,9.981c5.983,12.7,6.976,27.109,2.795,40.575c-4.204,13.54-13.286,24.903-25.573,31.997 c-13.002,7.508-28.151,9.5-42.652,5.615c-14.502-3.886-26.624-13.187-34.13-26.189c-15.497-26.841-6.267-61.285,20.574-76.782 c19.625-11.329,43.98-9.815,62.051,3.857c3.304,2.5,8.007,1.849,10.506-1.455c2.499-3.303,1.848-8.007-1.456-10.506 c-22.891-17.321-53.745-19.238-78.602-4.887c-16.472,9.51-28.255,24.866-33.178,43.238s-2.396,37.562,7.114,54.034 c9.51,16.473,24.866,28.255,43.238,33.179c6.135,1.644,12.361,2.457,18.546,2.457c12.338,0,24.517-3.236,35.488-9.571 C444.71,295.163,456.216,280.767,461.542,263.611z"/></symbol><symbol id="flags" viewBox="0 0 512 512"><title>flags</title><path d="M439.463,61.781c-4.616-2.685-10.318-2.685-14.933,0c-17.869,9.948-38.002,15.121-58.453,15.019 c-29.891,0.661-58.793-10.715-80.213-31.573c-24.728-24.205-58.162-37.431-92.757-36.693 c-27.861-0.241-55.101,8.232-77.909,24.235V25.6c0-14.138-11.461-25.6-25.6-25.6c-14.139,0-25.6,11.461-25.6,25.6v460.8 c0,14.138,11.461,25.6,25.6,25.6c14.138,0,25.6-11.461,25.6-25.6V264.533c2.828-0.265,5.522-1.33,7.765-3.072 c20.302-14.951,44.933-22.861,70.144-22.528c29.946-0.688,58.911,10.689,80.384,31.573c24.681,24.17,58.049,37.394,92.587,36.693 c26.469,0.308,52.431-7.266,74.581-21.76c4.74-3.285,7.501-8.742,7.339-14.507V76.8C448.083,70.618,444.818,64.872,439.463,61.781 z M98.13,486.4c0,4.713-3.82,8.533-8.533,8.533c-4.713,0-8.533-3.82-8.533-8.533V25.6c0-4.713,3.82-8.533,8.533-8.533 c4.713,0,8.533,3.82,8.533,8.533V486.4z M430.93,271.275c-19.319,12.47-41.86,19.025-64.853,18.859 c-29.891,0.661-58.793-10.715-80.213-31.573c-24.728-24.205-58.162-37.431-92.757-36.693 c-27.843-0.297-55.083,8.117-77.909,24.064V54.784c21.312-19.284,49.173-29.72,77.909-29.184 c29.946-0.688,58.911,10.689,80.384,31.573c24.681,24.17,58.049,37.394,92.587,36.693c22.598,0.158,44.882-5.296,64.853-15.872 V271.275z"/></symbol><symbol id="next" viewBox="0 0 512.002 512.002"><title>next</title><path d="M388.425,241.951L151.609,5.79c-7.759-7.733-20.321-7.72-28.067,0.04c-7.74,7.759-7.72,20.328,0.04,28.067l222.72,222.105 L123.574,478.106c-7.759,7.74-7.779,20.301-0.04,28.061c3.883,3.89,8.97,5.835,14.057,5.835c5.074,0,10.141-1.932,14.017-5.795 l236.817-236.155c3.737-3.718,5.834-8.778,5.834-14.05S392.156,245.676,388.425,241.951z"/></symbol><symbol id="left-arrow" viewBox="0 0 443.52 443.52"><title>left-arrow</title><path d="M143.492,221.863L336.226,29.129c6.663-6.664,6.663-17.468,0-24.132c-6.665-6.662-17.468-6.662-24.132,0l-204.8,204.8 c-6.662,6.664-6.662,17.468,0,24.132l204.8,204.8c6.78,6.548,17.584,6.36,24.132-0.42c6.387-6.614,6.387-17.099,0-23.712 L143.492,221.863z"/></symbol><symbol id="right-quote-sign" viewBox="0 0 975.036 975.036"><title>right-quote-sign</title><path d="M925.036,57.197h-304c-27.6,0-50,22.4-50,50v304c0,27.601,22.4,50,50,50h145.5c-1.9,79.601-20.4,143.3-55.4,191.2 c-27.6,37.8-69.399,69.1-125.3,93.8c-25.7,11.3-36.8,41.7-24.8,67.101l36,76c11.6,24.399,40.3,35.1,65.1,24.399 c66.2-28.6,122.101-64.8,167.7-108.8c55.601-53.7,93.7-114.3,114.3-181.9c20.601-67.6,30.9-159.8,30.9-276.8v-239 C975.036,79.598,952.635,57.197,925.036,57.197z"/><path d="M106.036,913.497c65.4-28.5,121-64.699,166.9-108.6c56.1-53.7,94.4-114.1,115-181.2c20.6-67.1,30.899-159.6,30.899-277.5 v-239c0-27.6-22.399-50-50-50h-304c-27.6,0-50,22.4-50,50v304c0,27.601,22.4,50,50,50h145.5c-1.9,79.601-20.4,143.3-55.4,191.2 c-27.6,37.8-69.4,69.1-125.3,93.8c-25.7,11.3-36.8,41.7-24.8,67.101l35.9,75.8C52.336,913.497,81.236,924.298,106.036,913.497z"/></symbol><symbol id="dollar" viewBox="0 0 511.995 511.995"><title>dollar</title><path d="M278.622,224.006V110.243c24.336,4.105,47.283,14.091,66.901,29.087c3.911,2.682,8.5,4.137,13.251,4.201 c15.222,0,27.633-12.249,27.794-27.471c0.032-6.528-2.521-12.798-7.11-17.452c-28.344-24.272-63.895-38.589-101.159-40.722V19.749 c0-10.892-8.823-19.715-19.715-19.715c-0.226-0.032-0.453-0.032-0.679-0.032c-11.053-0.162-20.167,8.662-20.329,19.747v36.844 c-72.718,5.171-122.166,50.095-122.166,109.885c0,73.364,62.376,93.726,122.166,109.885V405.64 c-31.544-4.234-61.277-17.323-85.646-37.813c-4.589-3.652-10.278-5.688-16.16-5.817c-14.899,1.034-26.372,13.509-26.179,28.441 c-0.032,6.528,2.521,12.798,7.11,17.452c33.386,30.057,76.306,47.348,121.197,48.802v35.551c0,0.226,0.032,0.453,0.032,0.679 c0.517,11.053,9.922,19.585,20.975,19.036c10.892,0,19.715-8.823,19.715-19.715v-36.197 c88.231-5.817,123.782-59.467,123.782-116.349C402.404,263.436,338.413,240.166,278.622,224.006z M237.9,213.664 c-35.228-10.342-62.699-21.007-62.699-51.064s24.886-51.711,62.699-54.619V213.664z M278.622,406.286V288.645 c36.521,10.342,64.961,24.239,64.638,58.174C343.26,371.382,326.454,400.469,278.622,406.286z"/></symbol><symbol id="heart" viewBox="0 0 412.735 412.735"><title>heart</title><path d="M295.706,35.522C295.706,35.522,295.706,35.522,295.706,35.522c-34.43-0.184-67.161,14.937-89.339,41.273 c-22.039-26.516-54.861-41.68-89.339-41.273C52.395,35.522,0,87.917,0,152.55C0,263.31,193.306,371.456,201.143,375.636 c3.162,2.113,7.286,2.113,10.449,0c7.837-4.18,201.143-110.759,201.143-223.086C412.735,87.917,360.339,35.522,295.706,35.522z M206.367,354.738C176.065,336.975,20.898,242.412,20.898,152.55c0-53.091,43.039-96.131,96.131-96.131 c32.512-0.427,62.938,15.972,80.457,43.363c3.557,4.905,10.418,5.998,15.323,2.44c0.937-0.68,1.761-1.503,2.44-2.44 c29.055-44.435,88.631-56.903,133.066-27.848c27.202,17.787,43.575,48.114,43.521,80.615 C391.837,243.456,236.669,337.497,206.367,354.738z"/></symbol><symbol id="clock" viewBox="0 0 443.294 443.294"><title>clock</title><path d="m221.647 0c-122.214 0-221.647 99.433-221.647 221.647s99.433 221.647 221.647 221.647 221.647-99.433 221.647-221.647-99.433-221.647-221.647-221.647zm0 415.588c-106.941 0-193.941-87-193.941-193.941s87-193.941 193.941-193.941 193.941 87 193.941 193.941-87 193.941-193.941 193.941z"/><path d="m235.5 83.118h-27.706v144.265l87.176 87.176 19.589-19.589-79.059-79.059z"/></symbol><symbol id="star" viewBox="0 -10 511.98685 511"><title>star</title><path d="m114.59375 491.140625c-5.609375 0-11.179688-1.75-15.933594-5.1875-8.855468-6.417969-12.992187-17.449219-10.582031-28.09375l32.9375-145.089844-111.703125-97.960937c-8.210938-7.167969-11.347656-18.519532-7.976562-28.90625 3.371093-10.367188 12.542968-17.707032 23.402343-18.710938l147.796875-13.417968 58.433594-136.746094c4.308594-10.046875 14.121094-16.535156 25.023438-16.535156 10.902343 0 20.714843 6.488281 25.023437 16.511718l58.433594 136.769532 147.773437 13.417968c10.882813.980469 20.054688 8.34375 23.425782 18.710938 3.371093 10.367187.253906 21.738281-7.957032 28.90625l-111.703125 97.941406 32.9375 145.085938c2.414063 10.667968-1.726562 21.699218-10.578125 28.097656-8.832031 6.398437-20.609375 6.890625-29.910156 1.300781l-127.445312-76.160156-127.445313 76.203125c-4.308594 2.558594-9.109375 3.863281-13.953125 3.863281zm141.398438-112.875c4.84375 0 9.640624 1.300781 13.953124 3.859375l120.277344 71.9375-31.085937-136.941406c-2.21875-9.746094 1.089843-19.921875 8.621093-26.515625l105.472657-92.5-139.542969-12.671875c-10.046875-.917969-18.6875-7.234375-22.613281-16.492188l-55.082031-129.046875-55.148438 129.066407c-3.882812 9.195312-12.523438 15.511718-22.546875 16.429687l-139.5625 12.671875 105.46875 92.5c7.554687 6.613281 10.859375 16.769531 8.621094 26.539062l-31.0625 136.9375 120.277343-71.914062c4.308594-2.558594 9.109376-3.859375 13.953126-3.859375zm-84.585938-221.847656s0 .023437-.023438.042969zm169.128906-.0625.023438.042969c0-.023438 0-.023438-.023438-.042969zm0 0"/></symbol><symbol id="picture" viewBox="0 0 480 480"><title>picture</title><path d="M440,72H40c-22.08,0.026-39.974,17.92-40,40v256c0.026,22.08,17.92,39.974,40,40h400 c2.245,0.009,4.486-0.187,6.696-0.584C465.945,404.194,480.037,387.517,480,368V112C479.974,89.919,462.08,72.026,440,72z M40,392c-12.435-0.002-22.81-9.501-23.904-21.888L175.6,265.824L337.808,392H40z M464,368 c0.013,11.742-8.492,21.761-20.08,23.656c-1.294,0.233-2.606,0.348-3.92,0.344h-76.136l-105.992-82.488l94.784-75.792 L464,300.528V368z M464,281.872l-107.88-64.728c-2.868-1.725-6.506-1.482-9.12,0.608l-102.136,81.68l-63.96-49.744 c-2.695-2.094-6.421-2.249-9.28-0.384L16,351.056V112c0-13.255,10.745-24,24-24h400c13.255,0,24,10.745,24,24V281.872z"/><path d="M240,120c-26.51,0-48,21.49-48,48c0.026,26.499,21.501,47.974,48,48c26.51,0,48-21.49,48-48 C288,141.49,266.51,120,240,120z M240,200c-17.673,0-32-14.327-32-32s14.327-32,32-32c17.673,0,32,14.327,32,32 S257.673,200,240,200z"/></symbol><symbol id="maps-and-flags" viewBox="0 0 512 512"><title>maps-and-flags</title><g> <g> <path d="M256,0C153.755,0,70.573,83.182,70.573,185.426c0,126.888,165.939,313.167,173.004,321.035 c6.636,7.391,18.222,7.378,24.846,0c7.065-7.868,173.004-194.147,173.004-321.035C441.425,83.182,358.244,0,256,0z M256,469.729 c-55.847-66.338-152.035-197.217-152.035-284.301c0-83.834,68.202-152.036,152.035-152.036s152.035,68.202,152.035,152.035 C408.034,272.515,311.861,403.37,256,469.729z"/> </g> </g><g> <g> <path d="M256,92.134c-51.442,0-93.292,41.851-93.292,93.293s41.851,93.293,93.292,93.293s93.291-41.851,93.291-93.293 S307.441,92.134,256,92.134z M256,245.328c-33.03,0-59.9-26.871-59.9-59.901s26.871-59.901,59.9-59.901s59.9,26.871,59.9,59.901 S289.029,245.328,256,245.328z"/> </g> </g></symbol><symbol id="checked" viewBox="0 0 512 512"><title>checked</title><g> <g> <path d="M497.36,69.995c-7.532-7.545-19.753-7.558-27.285-0.032L238.582,300.845l-83.522-90.713 c-7.217-7.834-19.419-8.342-27.266-1.126c-7.841,7.217-8.343,19.425-1.126,27.266l97.126,105.481 c3.557,3.866,8.535,6.111,13.784,6.22c0.141,0.006,0.277,0.006,0.412,0.006c5.101,0,10.008-2.026,13.623-5.628L497.322,97.286 C504.873,89.761,504.886,77.54,497.36,69.995z"/> </g> </g><g> <g> <path d="M492.703,236.703c-10.658,0-19.296,8.638-19.296,19.297c0,119.883-97.524,217.407-217.407,217.407 c-119.876,0-217.407-97.524-217.407-217.407c0-119.876,97.531-217.407,217.407-217.407c10.658,0,19.297-8.638,19.297-19.296 C275.297,8.638,266.658,0,256,0C114.84,0,0,114.84,0,256c0,141.154,114.84,256,256,256c141.154,0,256-114.846,256-256 C512,245.342,503.362,236.703,492.703,236.703z"/> </g> </g></symbol><symbol id="phone" viewBox="0 0 512.021 512.021"><title>phone</title><path d="m367.988 512.021c-16.528 0-32.916-2.922-48.941-8.744-70.598-25.646-136.128-67.416-189.508-120.795s-95.15-118.91-120.795-189.508c-8.241-22.688-10.673-46.108-7.226-69.612 3.229-22.016 11.757-43.389 24.663-61.809 12.963-18.501 30.245-33.889 49.977-44.5 21.042-11.315 44.009-17.053 68.265-17.053 7.544 0 14.064 5.271 15.645 12.647l25.114 117.199c1.137 5.307-.494 10.829-4.331 14.667l-42.913 42.912c40.482 80.486 106.17 146.174 186.656 186.656l42.912-42.913c3.838-3.837 9.361-5.466 14.667-4.331l117.199 25.114c7.377 1.581 12.647 8.101 12.647 15.645 0 24.256-5.738 47.224-17.054 68.266-10.611 19.732-25.999 37.014-44.5 49.977-18.419 12.906-39.792 21.434-61.809 24.663-6.899 1.013-13.797 1.518-20.668 1.519zm-236.349-479.321c-31.995 3.532-60.393 20.302-79.251 47.217-21.206 30.265-26.151 67.49-13.567 102.132 49.304 135.726 155.425 241.847 291.151 291.151 34.641 12.584 71.866 7.64 102.132-13.567 26.915-18.858 43.685-47.256 47.217-79.251l-95.341-20.43-44.816 44.816c-4.769 4.769-12.015 6.036-18.117 3.168-95.19-44.72-172.242-121.772-216.962-216.962-2.867-6.103-1.601-13.349 3.168-18.117l44.816-44.816z"/></symbol><symbol id="github" viewBox="0 0 512 512"><title>github</title><path d="m256 0c-140.609375 0-256 115.390625-256 256 0 119.988281 84.195312 228.984375 196 256v-84.695312c-11.078125 2.425781-21.273438 2.496093-32.550781-.828126-15.128907-4.464843-27.421875-14.542968-36.546875-29.910156-5.816406-9.8125-16.125-20.453125-26.878906-19.671875l-2.636719-29.882812c23.253906-1.992188 43.371093 14.167969 55.3125 34.230469 5.304687 8.921874 11.410156 14.152343 19.246093 16.464843 7.574219 2.230469 15.707032 1.160157 25.183594-2.1875 2.378906-18.972656 11.070313-26.074219 17.636719-36.074219v-.015624c-66.679687-9.945313-93.253906-45.320313-103.800781-73.242188-13.976563-37.074219-6.476563-83.390625 18.238281-112.660156.480469-.570313 1.347656-2.0625 1.011719-3.105469-11.332032-34.230469 2.476562-62.546875 2.984375-65.550781 13.078125 3.867187 15.203125-3.890625 56.808593 21.386718l7.191407 4.320313c3.007812 1.792969 2.0625.769531 5.070312.542969 17.371094-4.71875 35.683594-7.324219 53.726563-7.558594 18.179687.234375 36.375 2.839844 54.464844 7.75l2.328124.234375c-.203124-.03125.632813-.148437 2.035157-.984375 51.972656-31.480469 50.105469-21.191406 64.042969-25.722656.503906 3.007812 14.128906 31.785156 2.917968 65.582031-1.511718 4.65625 45.058594 47.300781 19.246094 115.753906-10.546875 27.933594-37.117188 63.308594-103.796875 73.253907v.015624c8.546875 13.027344 18.816406 19.957032 18.761719 46.832032v105.722656c111.808594-27.015625 196-136.011719 196-256 .003906-140.609375-115.386719-256-255.996094-256zm0 0"/></symbol><symbol id="facebook-logo" viewBox="0 0 470.513 470.513"><title>facebook-logo</title><path d="M271.521,154.17v-40.541c0-6.086,0.28-10.8,0.849-14.13c0.567-3.335,1.857-6.615,3.859-9.853 c1.999-3.236,5.236-5.47,9.706-6.708c4.476-1.24,10.424-1.858,17.85-1.858h40.539V0h-64.809c-37.5,0-64.433,8.897-80.803,26.691 c-16.368,17.798-24.551,44.014-24.551,78.658v48.82h-48.542v81.086h48.539v235.256h97.362V235.256h64.805l8.566-81.086H271.521z"/></symbol><symbol id="home" viewBox="0 0 512 512"><title>home</title><g> <g> <path d="M506.555,208.064L263.859,30.367c-4.68-3.426-11.038-3.426-15.716,0L5.445,208.064 c-5.928,4.341-7.216,12.665-2.875,18.593s12.666,7.214,18.593,2.875L256,57.588l234.837,171.943c2.368,1.735,5.12,2.57,7.848,2.57 c4.096,0,8.138-1.885,10.744-5.445C513.771,220.729,512.483,212.405,506.555,208.064z"/> </g> </g><g> <g> <path d="M442.246,232.543c-7.346,0-13.303,5.956-13.303,13.303v211.749H322.521V342.009c0-36.68-29.842-66.52-66.52-66.52 s-66.52,29.842-66.52,66.52v115.587H83.058V245.847c0-7.347-5.957-13.303-13.303-13.303s-13.303,5.956-13.303,13.303v225.053 c0,7.347,5.957,13.303,13.303,13.303h133.029c6.996,0,12.721-5.405,13.251-12.267c0.032-0.311,0.052-0.651,0.052-1.036v-128.89 c0-22.009,17.905-39.914,39.914-39.914s39.914,17.906,39.914,39.914v128.89c0,0.383,0.02,0.717,0.052,1.024 c0.524,6.867,6.251,12.279,13.251,12.279h133.029c7.347,0,13.303-5.956,13.303-13.303V245.847 C455.549,238.499,449.593,232.543,442.246,232.543z"/> </g> </g></symbol></svg>